{
  "accessors": [
    {
      "bufferView": 0,
      "componentType": 5125,
      "count": 678,
      "type": "SCALAR"
    },
    {
      "bufferView": 1,
      "componentType": 5126,
      "count": 171,
      "max": [
        96.8072357177734,
        7.38082456588745,
        102.095741271973
      ],
      "min": [
        -96.7876205444336,
        -17.0832557678223,
        -101.983757019043
      ],
      "type": "VEC3"
    },
    {
      "bufferView": 2,
      "componentType": 5126,
      "count": 171,
      "type": "VEC3"
    },
    {
      "bufferView": 3,
      "componentType": 5126,
      "count": 171,
      "type": "VEC2"
    },
    {
      "bufferView": 4,
      "componentType": 5125,
      "count": 51822,
      "type": "SCALAR"
    },
    {
      "bufferView": 5,
      "componentType": 5126,
      "count": 9694,
      "max": [
        96.5350112915039,
        -3.34505701065063,
        85.3444519042969
      ],
      "min": [
        -96.5360488891602,
        -5.33676528930664,
        -101.612045288086
      ],
      "type": "VEC3"
    },
    {
      "bufferView": 6,
      "componentType": 5126,
      "count": 9694,
      "type": "VEC3"
    },
    {
      "bufferView": 7,
      "componentType": 5126,
      "count": 9694,
      "type": "VEC2"
    },
    {
      "bufferView": 8,
      "componentType": 5125,
      "count": 312,
      "type": "SCALAR"
    },
    {
      "bufferView": 9,
      "componentType": 5126,
      "count": 105,
      "max": [
        96.5199966430664,
        -5.33674144744873,
        101.600028991699
      ],
      "min": [
        -96.5199966430664,
        -16.2206802368164,
        -101.599998474121
      ],
      "type": "VEC3"
    },
    {
      "bufferView": 10,
      "componentType": 5126,
      "count": 105,
      "type": "VEC3"
    },
    {
      "bufferView": 11,
      "componentType": 5126,
      "count": 105,
      "type": "VEC2"
    },
    {
      "bufferView": 12,
      "componentType": 5125,
      "count": 468,
      "type": "SCALAR"
    },
    {
      "bufferView": 13,
      "componentType": 5126,
      "count": 104,
      "max": [
        96.5199966430664,
        16.546365737915,
        101.599998474121
      ],
      "min": [
        -96.5199966430664,
        10.9714107513428,
        -101.599998474121
      ],
      "type": "VEC3"
    },
    {
      "bufferView": 14,
      "componentType": 5126,
      "count": 104,
      "type": "VEC3"
    },
    {
      "bufferView": 15,
      "componentType": 5126,
      "count": 104,
      "type": "VEC2"
    },
    {
      "bufferView": 16,
      "componentType": 5125,
      "count": 468,
      "type": "SCALAR"
    },
    {
      "bufferView": 17,
      "componentType": 5126,
      "count": 104,
      "max": [
        96.5199966430664,
        11.1933937072754,
        101.599998474121
      ],
      "min": [
        -96.5199966430664,
        5.00067520141602,
        -101.599998474121
      ],
      "type": "VEC3"
    },
    {
      "bufferView": 18,
      "componentType": 5126,
      "count": 104,
      "type": "VEC3"
    },
    {
      "bufferView": 19,
      "componentType": 5126,
      "count": 104,
      "type": "VEC2"
    },
    {
      "bufferView": 20,
      "componentType": 5125,
      "count": 468,
      "type": "SCALAR"
    },
    {
      "bufferView": 21,
      "componentType": 5126,
      "count": 104,
      "max": [
        96.5199966430664,
        5.14146661758423,
        101.599998474121
      ],
      "min": [
        -96.5199966430664,
        -3.91024518013,
        -101.599998474121
      ],
      "type": "VEC3"
    },
    {
      "bufferView": 22,
      "componentType": 5126,
      "count": 104,
      "type": "VEC3"
    },
    {
      "bufferView": 23,
      "componentType": 5126,
      "count": 104,
      "type": "VEC2"
    }
  ],
  "asset": {
    "generator": "Substance Painter 6.2.0",
    "version": "2.0"
  },
  "bufferViews": [
    {
      "buffer": 0,
      "byteLength": 2712,
      "target": 34963
    },
    {
      "buffer": 0,
      "byteLength": 2052,
      "byteOffset": 2712,
      "target": 34962
    },
    {
      "buffer": 0,
      "byteLength": 2052,
      "byteOffset": 4764,
      "target": 34962
    },
    {
      "buffer": 0,
      "byteLength": 1368,
      "byteOffset": 6816,
      "target": 34962
    },
    {
      "buffer": 0,
      "byteLength": 207288,
      "byteOffset": 8184,
      "target": 34963
    },
    {
      "buffer": 0,
      "byteLength": 116328,
      "byteOffset": 215472,
      "target": 34962
    },
    {
      "buffer": 0,
      "byteLength": 116328,
      "byteOffset": 331800,
      "target": 34962
    },
    {
      "buffer": 0,
      "byteLength": 77552,
      "byteOffset": 448128,
      "target": 34962
    },
    {
      "buffer": 0,
      "byteLength": 1248,
      "byteOffset": 525680,
      "target": 34963
    },
    {
      "buffer": 0,
      "byteLength": 1260,
      "byteOffset": 526928,
      "target": 34962
    },
    {
      "buffer": 0,
      "byteLength": 1260,
      "byteOffset": 528188,
      "target": 34962
    },
    {
      "buffer": 0,
      "byteLength": 840,
      "byteOffset": 529448,
      "target": 34962
    },
    {
      "buffer": 0,
      "byteLength": 1872,
      "byteOffset": 530288,
      "target": 34963
    },
    {
      "buffer": 0,
      "byteLength": 1248,
      "byteOffset": 532160,
      "target": 34962
    },
    {
      "buffer": 0,
      "byteLength": 1248,
      "byteOffset": 533408,
      "target": 34962
    },
    {
      "buffer": 0,
      "byteLength": 832,
      "byteOffset": 534656,
      "target": 34962
    },
    {
      "buffer": 0,
      "byteLength": 1872,
      "byteOffset": 535488,
      "target": 34963
    },
    {
      "buffer": 0,
      "byteLength": 1248,
      "byteOffset": 537360,
      "target": 34962
    },
    {
      "buffer": 0,
      "byteLength": 1248,
      "byteOffset": 538608,
      "target": 34962
    },
    {
      "buffer": 0,
      "byteLength": 832,
      "byteOffset": 539856,
      "target": 34962
    },
    {
      "buffer": 0,
      "byteLength": 1872,
      "byteOffset": 540688,
      "target": 34963
    },
    {
      "buffer": 0,
      "byteLength": 1248,
      "byteOffset": 542560,
      "target": 34962
    },
    {
      "buffer": 0,
      "byteLength": 1248,
      "byteOffset": 543808,
      "target": 34962
    },
    {
      "buffer": 0,
      "byteLength": 832,
      "byteOffset": 545056,
      "target": 34962
    }
  ],
  "buffers": [
    {
      "byteLength": 545888,
      "uri": "Demo_Colchones.bin"
    }
  ],
  "images": [
    {
      "uri": "MT_Colchones_baseColor.png"
    },
    {
      "uri": "MT_Colchones_occlusionRoughnessMetallic.png"
    },
    {
      "uri": "MT_Colchones_normal.png"
    },
    {
      "uri": "MT_TelaTempur_baseColor.png"
    },
    {
      "uri": "MT_TelaTempur_occlusionRoughnessMetallic.png"
    },
    {
      "uri": "MT_TelaTempur_normal.png"
    }
  ],
  "materials": [
    {
      "alphaMode": "OPAQUE",
      "name": "MT_Colchones",
      "normalTexture": {
        "index": 2
      },
      "occlusionTexture": {
        "index": 1
      },
      "pbrMetallicRoughness": {
        "baseColorTexture": {
          "index": 0
        },
        "metallicRoughnessTexture": {
          "index": 1
        }
      }
    },
    {
      "alphaMode": "OPAQUE",
      "name": "MT_TelaTempur",
      "normalTexture": {
        "index": 5
      },
      "occlusionTexture": {
        "index": 4
      },
      "pbrMetallicRoughness": {
        "baseColorTexture": {
          "index": 3
        },
        "metallicRoughnessTexture": {
          "index": 4
        }
      }
    }
  ],
  "meshes": [
    {
      "name": "TelaTempur",
      "primitives": [
        {
          "attributes": {
            "NORMAL": 2,
            "POSITION": 1,
            "TEXCOORD_0": 3
          },
          "indices": 0,
          "material": 1,
          "mode": 4
        }
      ]
    },
    {
      "name": "Conos",
      "primitives": [
        {
          "attributes": {
            "NORMAL": 6,
            "POSITION": 5,
            "TEXCOORD_0": 7
          },
          "indices": 4,
          "material": 0,
          "mode": 4
        }
      ]
    },
    {
      "name": "BlancoTop",
      "primitives": [
        {
          "attributes": {
            "NORMAL": 10,
            "POSITION": 9,
            "TEXCOORD_0": 11
          },
          "indices": 8,
          "material": 0,
          "mode": 4
        }
      ]
    },
    {
      "name": "BlancoGrueso",
      "primitives": [
        {
          "attributes": {
            "NORMAL": 14,
            "POSITION": 13,
            "TEXCOORD_0": 15
          },
          "indices": 12,
          "material": 0,
          "mode": 4
        }
      ]
    },
    {
      "name": "AzulGrueso",
      "primitives": [
        {
          "attributes": {
            "NORMAL": 18,
            "POSITION": 17,
            "TEXCOORD_0": 19
          },
          "indices": 16,
          "material": 0,
          "mode": 4
        }
      ]
    },
    {
      "name": "AzulDelgado",
      "primitives": [
        {
          "attributes": {
            "NORMAL": 22,
            "POSITION": 21,
            "TEXCOORD_0": 23
          },
          "indices": 20,
          "material": 0,
          "mode": 4
        }
      ]
    }
  ],
  "nodes": [
    {
      "children": [
        1
      ],
      "name": "RootNode"
    },
    {
      "children": [
        2,
        4,
        8,
        10,
        12
      ],
      "name": "ColchonCompleto"
    },
    {
      "children": [
        3
      ],
      "name": "TelaTempur"
    },
    {
      "mesh": 0,
      "name": "TelaTempur"
    },
    {
      "children": [
        5,
        6
      ],
      "name": "BlancoTop"
    },
    {
      "mesh": 2,
      "name": "BlancoTop"
    },
    {
      "children": [
        7
      ],
      "name": "Conos"
    },
    {
      "mesh": 1,
      "name": "Conos"
    },
    {
      "children": [
        9
      ],
      "name": "BlancoGrueso"
    },
    {
      "mesh": 3,
      "name": "BlancoGrueso"
    },
    {
      "children": [
        11
      ],
      "name": "AzulGrueso"
    },
    {
      "mesh": 4,
      "name": "AzulGrueso"
    },
    {
      "children": [
        13
      ],
      "name": "AzulDelgado"
    },
    {
      "mesh": 5,
      "name": "AzulDelgado"
    }
  ],
  "samplers": [
    {
      "magFilter": 9729,
      "minFilter": 9985,
      "wrapS": 10497,
      "wrapT": 10497
    }
  ],
  "scene": 0,
  "scenes": [
    {
      "name": "Scene",
      "nodes": [
        0
      ]
    }
  ],
  "textures": [
    {
      "sampler": 0,
      "source": 0
    },
    {
      "sampler": 0,
      "source": 1
    },
    {
      "sampler": 0,
      "source": 2
    },
    {
      "sampler": 0,
      "source": 3
    },
    {
      "sampler": 0,
      "source": 4
    },
    {
      "sampler": 0,
      "source": 5
    }
  ]
}